<?xml version="1.0" standalone="no"?><!DOCTYPE svg PUBLIC "-//W3C//DTD SVG 1.1//EN" "http://www.w3.org/Graphics/SVG/1.1/DTD/svg11.dtd"><svg t="1614916971858" class="icon" viewBox="0 0 1024 1024" version="1.1" xmlns="http://www.w3.org/2000/svg" p-id="2653" xmlns:xlink="http://www.w3.org/1999/xlink" width="200" height="200"><defs><style type="text/css"></style></defs><path d="M36.40888853 691.2v-9.10222187-311.75111146-9.10222187c2.2755552 0 3.98222187-0.56888853 5.6888896-0.5688896h121.74222187c17.6355552 0 34.70222187 2.2755552 50.63111147 9.67111147 29.01333333 13.0844448 44.37333333 36.97777813 47.21777706 67.69777813 2.8444448 31.85777813-10.80888853 56.32-38.1155552 73.38666667-1.70666667 1.13777813-2.8444448 1.70666667-5.12 3.41333333 2.8444448 1.13777813 5.68888853 2.2755552 7.9644448 3.41333333 32.9955552 13.0844448 52.90666667 42.66666667 51.2 77.93777707-0.56888853 11.94666667-2.8444448 23.89333333-6.82666666 35.27111147-10.80888853 31.28888853-34.70222187 48.9244448-66.56 55.18222186-8.53333333 1.70666667-17.06666667 2.8444448-25.6 3.98222294-47.21777813 0.56888853-94.4355552 0.56888853-142.22222294 0.56888853z m42.66666667-39.25333333c2.2755552 0 3.41333333 0.56888853 4.55111147 0.56888853H164.97777813c8.53333333 0 17.06666667-0.56888853 25.0311104-2.2755552 27.30666667-5.12 43.8044448-25.03111147 44.37333334-52.90666667 0.56888853-27.8755552-14.79111147-48.3555552-42.09777707-54.61333333-10.24-2.2755552-20.48-3.41333333-31.2888896-3.41333333-25.6-0.56888853-51.2 0-76.8 0-1.70666667 0-3.98222187 0.56888853-5.68888853 0.56888853 0.56888853 37.54666667 0.56888853 74.5244448 0.56888853 112.07111147z m0.5688896-152.46222187c1.13777813 0 1.70666667 0.56888853 2.2755552 0.56888853 17.06666667 0 33.5644448 0.56888853 50.63111147 0 15.92888853-0.56888853 31.85777813-0.56888853 47.78666666-2.2755552 23.89333333-2.8444448 38.6844448-18.2044448 40.96-42.66666666 2.2755552-26.73777813-11.94666667-47.78666667-36.97777813-52.90666667-5.12-1.13777813-10.24-1.70666667-15.36-1.70666667-27.8755552-0.56888853-56.32-0.56888853-84.1955552-1.13777813-1.70666667 0-3.41333333 0.56888853-5.12 0.56888853v99.55555627zM443.73333333 691.2V409.6v-9.67111147H338.48888853v-38.68444373h252.58666667v38.1155552H486.4c0 2.8444448-0.56888853 4.55111147-0.56888853 6.25777813v281.0311104c0 1.70666667 0 3.41333333 0.56888853 4.55111147H443.73333333zM847.6444448 691.2c0-2.2755552-0.56888853-4.55111147-0.5688896-6.82666667v-117.19111146-7.96444374c6.82666667 0 13.0844448-0.56888853 19.34222293 0 1.70666667 0 3.98222187 2.8444448 5.68888854 4.5511104 23.89333333 30.15111147 48.3555552 60.87111147 72.24888853 91.02222294 1.70666667 1.70666667 3.41333333 3.98222187 5.6888896 6.82666666v-102.4h19.34222187v131.41333334h-22.18666667c-0.56888853-1.13777813-1.13777813-2.8444448-2.2755552-3.98222294-25.03111147-31.28888853-50.06222187-63.14666667-74.5244448-94.4355552-1.13777813-1.13777813-1.13777813-2.8444448-2.2755552-3.98222186l-1.70666667 1.70666666v101.26222187H847.6444448zM740.69333333 691.2c-6.82666667-1.13777813-13.65333333-1.70666667-19.91111146-3.41333333-28.4444448-6.25777813-46.64888853-29.58222187-48.3555552-59.73333334-2.2755552-41.52888853 24.46222187-68.8355552 68.8355552-71.11111146 17.06666667-0.56888853 32.9955552 1.70666667 47.78666666 11.94666666 8.53333333 6.25777813 15.36 14.22222187 18.77333334 25.6-6.25777813 1.13777813-11.37777813 2.2755552-17.06666667 3.41333334-1.13777813 0-3.98222187-1.13777813-3.98222187-2.2755552-9.67111147-25.03111147-38.6844448-26.73777813-59.1644448-21.61777814-21.04888853 5.68888853-32.42666667 21.61777813-33.56444373 47.21777814 0 5.12 0 10.80888853 1.13777707 15.92888853 6.82666667 35.84 52.33777813 52.33777813 80.78222293 28.4444448 6.25777813-5.68888853 10.24-13.65333333 15.92888853-22.18666667 4.55111147 1.13777813 11.37777813 2.2755552 18.2044448 3.98222187-5.12 16.49777813-14.22222187 29.01333333-29.58222293 35.27111147-9.67111147 3.98222187-21.04888853 5.68888853-31.28888853 8.53333333h-8.53333334zM550.1155552 691.2v-40.96h42.66666667v40.96h-42.66666667zM733.86666667 444.87111147v-20.48h-59.73333334v-11.94666667h134.82666667v11.94666667h-59.73333333v20.48h54.0444448v12.5155552h-54.0444448v32.42666666h67.69777813v12.5155552h-150.18666667v-11.94666666h66.56v-32.9955552h-53.47555626v-12.5155552h54.0444448zM959.14666667 509.7244448c0-2.2755552-0.56888853-4.55111147-0.56888854-7.39555627h-53.47555626c-0.56888853 2.2755552-0.56888853 4.55111147-1.13777707 7.39555627h-12.51555627v-54.0444448h80.21333334v54.0444448h-12.5155552z m-54.0444448-20.48h53.47555626v-21.0488896h-53.47555626V489.2444448zM671.28888853 381.7244448h65.99111147c-2.8444448-5.12-5.68888853-9.67111147-8.53333333-14.79111147 3.98222187-1.70666667 7.9644448-3.98222187 12.5155552-6.25777813 3.98222187 6.82666667 8.53333333 13.0844448 13.0844448 21.0488896h56.88888853v26.73777707h-13.08444373v-13.08444374h-113.2088896c0 4.55111147-0.56888853 8.53333333-0.56888854 13.08444374H671.28888853v-26.73777707zM865.84888853 414.15111147v50.06222186c6.25777813-1.13777813 11.94666667-2.2755552 18.77333334-3.41333333v12.5155552c-16.49777813 3.41333333-32.9955552 7.3955552-50.6311104 10.8088896-1.13777813-4.55111147-1.70666667-8.53333333-2.8444448-13.65333333 5.68888853-1.13777813 10.80888853-1.70666667 16.49777813-3.41333334 1.70666667-0.56888853 4.55111147-3.41333333 4.5511104-5.12 0.56888853-15.92888853 0-31.28888853 0-47.78666666h-18.77333333v-12.51555627h18.2044448v-38.1155552h13.65333333v38.1155552h19.34222187v12.51555627h-18.77333334zM949.4755552 377.17333333V364.08888853h13.0844448v13.65333334h20.48v12.51555626h-19.91111147v13.08444374H950.0444448c0-3.98222187-0.56888853-7.9644448-0.5688896-13.08444374h-34.13333333c-0.56888853 3.98222187-0.56888853 8.53333333-1.13777707 13.08444374h-12.51555627c0-3.98222187-0.56888853-8.53333333-0.56888853-13.08444374h-20.48v-12.51555626h20.48v-14.22222187h13.0844448c0 4.55111147 0.56888853 8.53333333 0.56888853 13.0844448 10.80888853 0.56888853 22.18666667 0.56888853 34.70222187 0.56888853z" p-id="2654"></path><path d="M905.10222187 433.49333333c-6.82666667 3.98222187-13.65333333 7.3955552-20.48 11.94666667-2.8444448-3.98222187-5.68888853-7.3955552-9.10222187-11.37777813 6.25777813-3.41333333 11.94666667-5.68888853 17.06666667-9.6711104 10.24-7.9644448 20.48-16.49777813 29.58222186-25.6 5.12-5.12 10.80888853-2.2755552 14.79111147-3.41333334 13.0844448 17.6355552 30.72 27.30666667 50.06222187 36.40888854-2.8444448 4.55111147-5.12 8.53333333-7.96444374 12.5155552-7.3955552-3.98222187-13.65333333-7.3955552-20.48-10.80888854-9.10222187-7.9644448-18.2044448-15.36-26.73777813-22.7555552-9.10222187 7.3955552-17.6355552 15.36-26.73777813 22.7555552z" p-id="2655"></path><path d="M958.57777813 433.49333333c0 3.98222187 0.56888853 7.3955552 0.56888854 11.94666667h-54.0444448v-11.94666667h53.47555626zM765.1555552 466.48888853c3.41333333-2.8444448 6.25777813-5.12 10.24-7.96444373 6.82666667 6.82666667 13.0844448 13.65333333 19.91111147 21.04888853-3.98222187 3.41333333-7.3955552 5.68888853-11.37777814 8.53333334-6.25777813-6.82666667-11.94666667-14.22222187-18.77333333-21.61777814z" p-id="2656"></path></svg>