<svg version="1.1" id="logo" xmlns="http://www.w3.org/2000/svg" xmlns:xlink="http://www.w3.org/1999/xlink" x="0px" y="0px" viewBox="0 0 160 45" style="enable-background:new 0 0 160 45;color:#1890ff;" xml:space="preserve" aria-hidden="true" fill="currentColor" width="160" height="45" alt="logo" class="Logo logo"><path id="logo-2" class="st0" d="M64,12.2l-7.3,9.4l-1.4,7.8h4.9l1.4-7.8l7.8-9.4C69.5,12.2,64,12.2,64,12.2z M81.6,12.2l-1.8,10.5
	c-0.1,0.8-0.4,1.5-1.1,2.1c-0.4,0.4-1,0.6-1.5,0.7l-0.7,3.8c1.1,0,2.2-0.1,3.4-0.6c0.8-0.3,1.5-0.7,2.2-1.3c0.7-0.6,1.3-1.4,1.8-2.2
	c0.4-0.8,0.7-1.7,0.8-2.7l1.8-10.3L81.6,12.2L81.6,12.2z M76.1,25.5c-0.6,0-1-0.3-1.3-0.7c-0.4-0.6-0.6-1.4-0.4-2.1l1.8-10.5h-4.9
	l-1.8,10.3c-0.1,0.8-0.1,1.8,0,2.7c0.1,0.7,0.3,1.3,0.7,1.8c0.4,0.6,0.8,1,1.4,1.4c0.7,0.4,1.4,0.6,2.2,0.7c0.6,0,1.1,0.1,1.5,0.1
	L76.1,25.5z M130.1,25.5c-0.6,0-1-0.3-1.3-0.7c-0.4-0.6-0.6-1.4-0.4-2.1l1.8-10.5h-4.9l-1.8,10.3c-0.1,0.8-0.1,1.8,0,2.7
	c0.1,0.7,0.3,1.3,0.7,1.8c0.4,0.6,0.8,1,1.4,1.4c0.7,0.4,1.4,0.6,2.2,0.7c0.6,0,1.1,0.1,1.5,0.1L130.1,25.5z M135.7,12.2l-1.8,10.5
	c-0.1,0.8-0.4,1.5-1.1,2.1c-0.4,0.4-1,0.6-1.5,0.7l-0.7,3.8c1.1,0,2.2-0.1,3.4-0.6c0.8-0.3,1.5-0.7,2.2-1.3s1.3-1.4,1.8-2.2
	c0.4-0.8,0.7-1.7,0.8-2.7l1.8-10.3L135.7,12.2L135.7,12.2z M92.7,20l1.3-7.5l0,0h-4.6l-2.9,16.8H91L92.7,20z M99.9,12.4l-1.7,9.2
	l-3.5-7.4l-1.3,7.5l3.5,7.4h4.6l2.9-16.8C104.6,12.4,99.9,12.4,99.9,12.4z M146.8,20l1.3-7.5l0,0h-4.6l-2.9,16.8h4.6L146.8,20z
	 M154,12.4l-1.7,9.2l-3.5-7.4l-1.3,7.5l3.5,7.4h4.6l2.9-16.8L154,12.4L154,12.4z M121.1,17.3c0-0.8-0.3-1.8-0.8-2.5
	c-0.4-0.7-1.1-1.3-2-1.7c-1.1-0.4-2.2-0.7-3.4-0.6h-7.3l-0.7,3.6h9.2l-0.1,6.4l-4.1,3.4l-2.9-3.4l1.8-5.3h-4.1l-2.1,12h7.3
	c1,0,2-0.1,2.9-0.4c0.8-0.3,1.7-0.7,2.4-1.3c0.8-0.7,1.5-1.4,2-2.4c0.7-1.4,1.1-2.8,1.4-4.3C121.1,19.6,121.1,18.4,121.1,17.3z
	 M59.6,16.4l-1.8-4.2h-5.5l3.9,8.2L59.6,16.4z M33,4.4c1.1,0,2.1,0,3.2,0.1V0.3H0.6v14.3C10.1,7.9,21.4,4.4,33,4.4L33,4.4z M26,17.1
	l0.8,10.3l-8.4,6.8l-6-6.8l0,0l0,0c4.6-8.7,12.7-15,22.4-17.5V7.1l0,0c-0.6,0-1.3,0-1.8,0c-12.2,0-23.9,4.1-33.5,11.6v0.1h6.1
	L0.7,30L9,36.7l9.5,7.7L36.2,30l-2.4-16.6C31.1,14.3,28.4,15.6,26,17.1L26,17.1z"></path></svg>